<svg id="visual" viewBox="0 0 900 450" width="900" height="450" xmlns="http://www.w3.org/2000/svg" xmlns:xlink="http://www.w3.org/1999/xlink" version="1.1"><rect x="0" y="0" width="900" height="450" fill="#FFFFFF"></rect><defs><linearGradient id="grad1_0" x1="50%" y1="100%" x2="100%" y2="0%"><stop offset="10%" stop-color="#dcf5fc" stop-opacity="1"></stop><stop offset="90%" stop-color="#dcf5fc" stop-opacity="1"></stop></linearGradient></defs><defs><linearGradient id="grad1_1" x1="50%" y1="100%" x2="100%" y2="0%"><stop offset="10%" stop-color="#dcf5fc" stop-opacity="1"></stop><stop offset="90%" stop-color="#e8f8fd" stop-opacity="1"></stop></linearGradient></defs><defs><linearGradient id="grad1_2" x1="50%" y1="100%" x2="100%" y2="0%"><stop offset="10%" stop-color="#f4fcfe" stop-opacity="1"></stop><stop offset="90%" stop-color="#e8f8fd" stop-opacity="1"></stop></linearGradient></defs><defs><linearGradient id="grad1_3" x1="50%" y1="100%" x2="100%" y2="0%"><stop offset="10%" stop-color="#f4fcfe" stop-opacity="1"></stop><stop offset="90%" stop-color="#ffffff" stop-opacity="1"></stop></linearGradient></defs><defs><linearGradient id="grad2_0" x1="0%" y1="100%" x2="50%" y2="0%"><stop offset="10%" stop-color="#dcf5fc" stop-opacity="1"></stop><stop offset="90%" stop-color="#dcf5fc" stop-opacity="1"></stop></linearGradient></defs><defs><linearGradient id="grad2_1" x1="0%" y1="100%" x2="50%" y2="0%"><stop offset="10%" stop-color="#e8f8fd" stop-opacity="1"></stop><stop offset="90%" stop-color="#dcf5fc" stop-opacity="1"></stop></linearGradient></defs><defs><linearGradient id="grad2_2" x1="0%" y1="100%" x2="50%" y2="0%"><stop offset="10%" stop-color="#e8f8fd" stop-opacity="1"></stop><stop offset="90%" stop-color="#f4fcfe" stop-opacity="1"></stop></linearGradient></defs><defs><linearGradient id="grad2_3" x1="0%" y1="100%" x2="50%" y2="0%"><stop offset="10%" stop-color="#ffffff" stop-opacity="1"></stop><stop offset="90%" stop-color="#f4fcfe" stop-opacity="1"></stop></linearGradient></defs><g transform="translate(900, 450)"><path d="M-405 0C-371.4 -57.2 -337.9 -114.3 -308.3 -178C-278.8 -241.7 -253.2 -311.8 -202.5 -350.7C-151.8 -389.7 -75.9 -397.3 0 -405L0 0Z" fill="#f9fdff"></path><path d="M-303.7 0C-278.6 -42.9 -253.4 -85.8 -231.2 -133.5C-209.1 -181.2 -189.9 -233.9 -151.9 -263.1C-113.8 -292.2 -56.9 -298 0 -303.7L0 0Z" fill="#eefafe"></path><path d="M-202.5 0C-185.7 -28.6 -168.9 -57.2 -154.2 -89C-139.4 -120.8 -126.6 -155.9 -101.3 -175.4C-75.9 -194.8 -37.9 -198.7 0 -202.5L0 0Z" fill="#e2f7fd"></path><path d="M-101.2 0C-92.9 -14.3 -84.5 -28.6 -77.1 -44.5C-69.7 -60.4 -63.3 -78 -50.6 -87.7C-37.9 -97.4 -19 -99.3 0 -101.2L0 0Z" fill="#dcf5fc"></path></g><g transform="translate(0, 0)"><path d="M405 0C398.6 78.1 392.2 156.2 350.7 202.5C309.3 248.8 232.8 263.4 168.5 291.9C104.2 320.3 52.1 362.7 0 405L0 0Z" fill="#f9fdff"></path><path d="M303.8 0C298.9 58.6 294.1 117.1 263.1 151.9C232 186.6 174.6 197.5 126.4 218.9C78.2 240.2 39.1 272 0 303.8L0 0Z" fill="#eefafe"></path><path d="M202.5 0C199.3 39 196.1 78.1 175.4 101.2C154.6 124.4 116.4 131.7 84.3 145.9C52.1 160.2 26.1 181.3 0 202.5L0 0Z" fill="#e2f7fd"></path><path d="M101.3 0C99.6 19.5 98 39 87.7 50.6C77.3 62.2 58.2 65.8 42.1 73C26.1 80.1 13 90.7 0 101.3L0 0Z" fill="#dcf5fc"></path></g></svg>