<svg xmlns="http://www.w3.org/2000/svg" xmlns:xlink="http://www.w3.org/1999/xlink" width="300" zoomAndPan="magnify" viewBox="0 0 224.87999 47.25" height="63" preserveAspectRatio="xMidYMid meet" version="1.0"><defs><g/></defs><g fill="#ffffff" fill-opacity="1"><g transform="translate(17.750661, 25.880966)"><g><path d="M 5.171875 0 L 2.171875 0 C 1.859375 0 1.703125 -0.15625 1.703125 -0.46875 L 1.703125 -16.828125 C 1.703125 -17.128906 1.859375 -17.28125 2.171875 -17.28125 L 5.171875 -17.28125 C 5.484375 -17.28125 5.640625 -17.128906 5.640625 -16.828125 L 5.640625 -9.140625 L 12.359375 -9.140625 L 12.359375 -16.828125 C 12.359375 -17.128906 12.507812 -17.28125 12.8125 -17.28125 L 15.828125 -17.28125 C 16.140625 -17.28125 16.296875 -17.128906 16.296875 -16.828125 L 16.296875 -0.46875 C 16.296875 -0.15625 16.140625 0 15.828125 0 L 12.8125 0 C 12.507812 0 12.359375 -0.15625 12.359375 -0.46875 L 12.359375 -5.734375 L 5.640625 -5.734375 L 5.640625 -0.46875 C 5.640625 -0.15625 5.484375 0 5.171875 0 Z M 5.171875 0 "/></g></g></g><g fill="#ffffff" fill-opacity="1"><g transform="translate(34.471463, 25.880966)"><g><path d="M 7.140625 0.265625 C 5.984375 0.265625 4.972656 0.046875 4.109375 -0.390625 C 3.242188 -0.828125 2.566406 -1.457031 2.078125 -2.28125 C 1.597656 -3.113281 1.359375 -4.113281 1.359375 -5.28125 L 1.359375 -12.03125 C 1.359375 -12.332031 1.515625 -12.484375 1.828125 -12.484375 L 4.484375 -12.484375 C 4.796875 -12.484375 4.953125 -12.332031 4.953125 -12.03125 L 4.953125 -5.40625 C 4.953125 -4.675781 5.132812 -4.082031 5.5 -3.625 C 5.863281 -3.164062 6.410156 -2.9375 7.140625 -2.9375 C 7.628906 -2.9375 8.035156 -3.046875 8.359375 -3.265625 C 8.679688 -3.492188 8.921875 -3.796875 9.078125 -4.171875 C 9.234375 -4.546875 9.3125 -4.957031 9.3125 -5.40625 L 9.3125 -12.03125 C 9.3125 -12.332031 9.46875 -12.484375 9.78125 -12.484375 L 12.453125 -12.484375 C 12.753906 -12.484375 12.90625 -12.332031 12.90625 -12.03125 L 12.90625 -5.28125 C 12.90625 -4.113281 12.660156 -3.113281 12.171875 -2.28125 C 11.691406 -1.457031 11.019531 -0.828125 10.15625 -0.390625 C 9.289062 0.046875 8.285156 0.265625 7.140625 0.265625 Z M 7.140625 0.265625 "/></g></g></g><g fill="#ffffff" fill-opacity="1"><g transform="translate(47.468445, 25.880966)"><g><path d="M 7.296875 -12.765625 C 8.210938 -12.765625 9.039062 -12.613281 9.78125 -12.3125 C 10.53125 -12.007812 11.175781 -11.570312 11.71875 -11 C 12.257812 -10.4375 12.675781 -9.757812 12.96875 -8.96875 C 13.257812 -8.175781 13.40625 -7.285156 13.40625 -6.296875 C 13.40625 -6.078125 13.367188 -5.921875 13.296875 -5.828125 C 13.222656 -5.742188 13.085938 -5.703125 12.890625 -5.703125 L 4.484375 -5.703125 C 4.515625 -5.054688 4.675781 -4.515625 4.96875 -4.078125 C 5.269531 -3.648438 5.648438 -3.328125 6.109375 -3.109375 C 6.578125 -2.898438 7.078125 -2.796875 7.609375 -2.796875 C 8.117188 -2.796875 8.640625 -2.894531 9.171875 -3.09375 C 9.703125 -3.289062 10.207031 -3.578125 10.6875 -3.953125 C 10.925781 -4.117188 11.132812 -4.109375 11.3125 -3.921875 L 12.65625 -2.21875 C 12.863281 -2.007812 12.820312 -1.785156 12.53125 -1.546875 C 11.78125 -0.941406 10.96875 -0.488281 10.09375 -0.1875 C 9.226562 0.113281 8.363281 0.265625 7.5 0.265625 C 6.613281 0.265625 5.78125 0.117188 5 -0.171875 C 4.21875 -0.472656 3.53125 -0.90625 2.9375 -1.46875 C 2.34375 -2.03125 1.875 -2.710938 1.53125 -3.515625 C 1.195312 -4.316406 1.03125 -5.226562 1.03125 -6.25 C 1.03125 -7.25 1.1875 -8.148438 1.5 -8.953125 C 1.8125 -9.753906 2.25 -10.4375 2.8125 -11 C 3.375 -11.5625 4.035156 -11.992188 4.796875 -12.296875 C 5.566406 -12.609375 6.398438 -12.765625 7.296875 -12.765625 Z M 7.390625 -9.953125 C 7.054688 -9.953125 6.707031 -9.890625 6.34375 -9.765625 C 5.976562 -9.648438 5.644531 -9.453125 5.34375 -9.171875 C 5.050781 -8.890625 4.835938 -8.507812 4.703125 -8.03125 L 9.796875 -8.03125 C 9.703125 -8.507812 9.53125 -8.890625 9.28125 -9.171875 C 9.03125 -9.453125 8.738281 -9.648438 8.40625 -9.765625 C 8.070312 -9.890625 7.734375 -9.953125 7.390625 -9.953125 Z M 7.390625 -9.953125 "/></g></g></g><g fill="#ffffff" fill-opacity="1"><g transform="translate(60.577928, 25.880966)"><g><path d="M 7.859375 0.265625 C 6.867188 0.265625 5.957031 0.109375 5.125 -0.203125 C 4.289062 -0.523438 3.5625 -0.976562 2.9375 -1.5625 C 2.320312 -2.144531 1.84375 -2.832031 1.5 -3.625 C 1.15625 -4.414062 0.984375 -5.289062 0.984375 -6.25 C 0.984375 -7.195312 1.15625 -8.066406 1.5 -8.859375 C 1.84375 -9.660156 2.320312 -10.351562 2.9375 -10.9375 C 3.5625 -11.519531 4.289062 -11.96875 5.125 -12.28125 C 5.957031 -12.601562 6.867188 -12.765625 7.859375 -12.765625 C 8.847656 -12.765625 9.765625 -12.585938 10.609375 -12.234375 C 11.460938 -11.890625 12.1875 -11.414062 12.78125 -10.8125 C 12.882812 -10.707031 12.925781 -10.59375 12.90625 -10.46875 C 12.894531 -10.351562 12.835938 -10.25 12.734375 -10.15625 L 10.9375 -8.453125 C 10.726562 -8.265625 10.515625 -8.285156 10.296875 -8.515625 C 10.003906 -8.859375 9.648438 -9.128906 9.234375 -9.328125 C 8.816406 -9.535156 8.359375 -9.640625 7.859375 -9.640625 C 7.210938 -9.640625 6.640625 -9.488281 6.140625 -9.1875 C 5.640625 -8.894531 5.242188 -8.492188 4.953125 -7.984375 C 4.671875 -7.472656 4.53125 -6.894531 4.53125 -6.25 C 4.53125 -5.613281 4.671875 -5.035156 4.953125 -4.515625 C 5.242188 -4.003906 5.640625 -3.597656 6.140625 -3.296875 C 6.640625 -2.992188 7.210938 -2.84375 7.859375 -2.84375 C 8.347656 -2.84375 8.800781 -2.941406 9.21875 -3.140625 C 9.644531 -3.347656 10.003906 -3.625 10.296875 -3.96875 C 10.398438 -4.070312 10.503906 -4.132812 10.609375 -4.15625 C 10.710938 -4.1875 10.820312 -4.148438 10.9375 -4.046875 L 12.734375 -2.328125 C 12.972656 -2.109375 13 -1.898438 12.8125 -1.703125 C 12.21875 -1.085938 11.488281 -0.601562 10.625 -0.25 C 9.769531 0.09375 8.847656 0.265625 7.859375 0.265625 Z M 7.859375 0.265625 "/></g></g></g><g fill="#ffffff" fill-opacity="1"><g transform="translate(73.057402, 25.880966)"><g><path d="M 4.703125 0 L 2.03125 0 C 1.71875 0 1.5625 -0.15625 1.5625 -0.46875 L 1.5625 -16.828125 C 1.5625 -17.128906 1.71875 -17.28125 2.03125 -17.28125 L 4.703125 -17.28125 C 5.015625 -17.28125 5.171875 -17.128906 5.171875 -16.828125 L 5.171875 -7.34375 L 9.171875 -12.234375 C 9.304688 -12.398438 9.488281 -12.484375 9.71875 -12.484375 L 13.15625 -12.484375 C 13.351562 -12.484375 13.472656 -12.425781 13.515625 -12.3125 C 13.566406 -12.207031 13.53125 -12.078125 13.40625 -11.921875 L 8.890625 -6.765625 L 13.6875 -0.5625 C 13.800781 -0.394531 13.828125 -0.257812 13.765625 -0.15625 C 13.710938 -0.0507812 13.585938 0 13.390625 0 L 10.109375 0 C 9.878906 0 9.695312 -0.0976562 9.5625 -0.296875 L 5.171875 -6.25 L 5.171875 -0.46875 C 5.171875 -0.15625 5.015625 0 4.703125 0 Z M 4.703125 0 "/></g></g></g><g fill="#ffffff" fill-opacity="1"><g transform="translate(86.189387, 25.880966)"><g><path d="M 7.296875 -12.765625 C 8.210938 -12.765625 9.039062 -12.613281 9.78125 -12.3125 C 10.53125 -12.007812 11.175781 -11.570312 11.71875 -11 C 12.257812 -10.4375 12.675781 -9.757812 12.96875 -8.96875 C 13.257812 -8.175781 13.40625 -7.285156 13.40625 -6.296875 C 13.40625 -6.078125 13.367188 -5.921875 13.296875 -5.828125 C 13.222656 -5.742188 13.085938 -5.703125 12.890625 -5.703125 L 4.484375 -5.703125 C 4.515625 -5.054688 4.675781 -4.515625 4.96875 -4.078125 C 5.269531 -3.648438 5.648438 -3.328125 6.109375 -3.109375 C 6.578125 -2.898438 7.078125 -2.796875 7.609375 -2.796875 C 8.117188 -2.796875 8.640625 -2.894531 9.171875 -3.09375 C 9.703125 -3.289062 10.207031 -3.578125 10.6875 -3.953125 C 10.925781 -4.117188 11.132812 -4.109375 11.3125 -3.921875 L 12.65625 -2.21875 C 12.863281 -2.007812 12.820312 -1.785156 12.53125 -1.546875 C 11.78125 -0.941406 10.96875 -0.488281 10.09375 -0.1875 C 9.226562 0.113281 8.363281 0.265625 7.5 0.265625 C 6.613281 0.265625 5.78125 0.117188 5 -0.171875 C 4.21875 -0.472656 3.53125 -0.90625 2.9375 -1.46875 C 2.34375 -2.03125 1.875 -2.710938 1.53125 -3.515625 C 1.195312 -4.316406 1.03125 -5.226562 1.03125 -6.25 C 1.03125 -7.25 1.1875 -8.148438 1.5 -8.953125 C 1.8125 -9.753906 2.25 -10.4375 2.8125 -11 C 3.375 -11.5625 4.035156 -11.992188 4.796875 -12.296875 C 5.566406 -12.609375 6.398438 -12.765625 7.296875 -12.765625 Z M 7.390625 -9.953125 C 7.054688 -9.953125 6.707031 -9.890625 6.34375 -9.765625 C 5.976562 -9.648438 5.644531 -9.453125 5.34375 -9.171875 C 5.050781 -8.890625 4.835938 -8.507812 4.703125 -8.03125 L 9.796875 -8.03125 C 9.703125 -8.507812 9.53125 -8.890625 9.28125 -9.171875 C 9.03125 -9.453125 8.738281 -9.648438 8.40625 -9.765625 C 8.070312 -9.890625 7.734375 -9.953125 7.390625 -9.953125 Z M 7.390625 -9.953125 "/></g></g></g><g fill="#ffffff" fill-opacity="1"><g transform="translate(99.298873, 25.880966)"><g><path d="M 4.703125 0 L 2.03125 0 C 1.71875 0 1.5625 -0.15625 1.5625 -0.46875 L 1.546875 -12.03125 C 1.546875 -12.332031 1.703125 -12.484375 2.015625 -12.484375 L 3.75 -12.484375 C 4 -12.484375 4.164062 -12.351562 4.25 -12.09375 L 4.640625 -10.84375 C 5.117188 -11.539062 5.664062 -12.035156 6.28125 -12.328125 C 6.90625 -12.617188 7.523438 -12.765625 8.140625 -12.765625 C 8.484375 -12.765625 8.867188 -12.695312 9.296875 -12.5625 C 9.421875 -12.53125 9.507812 -12.460938 9.5625 -12.359375 C 9.613281 -12.253906 9.617188 -12.132812 9.578125 -12 L 8.984375 -9.71875 C 8.921875 -9.4375 8.734375 -9.332031 8.421875 -9.40625 C 8.210938 -9.445312 8.007812 -9.476562 7.8125 -9.5 C 7.625 -9.53125 7.46875 -9.546875 7.34375 -9.546875 C 6.613281 -9.546875 6.066406 -9.3125 5.703125 -8.84375 C 5.347656 -8.375 5.171875 -7.6875 5.171875 -6.78125 L 5.171875 -0.46875 C 5.171875 -0.15625 5.015625 0 4.703125 0 Z M 4.703125 0 "/></g></g></g><g fill="#ffffff" fill-opacity="1"><g transform="translate(108.131842, 25.880966)"><g><path d="M 9.953125 0.359375 C 8.960938 0.359375 8.015625 0.21875 7.109375 -0.0625 C 6.210938 -0.34375 5.390625 -0.742188 4.640625 -1.265625 C 3.898438 -1.796875 3.253906 -2.429688 2.703125 -3.171875 C 2.148438 -3.910156 1.722656 -4.738281 1.421875 -5.65625 C 1.128906 -6.582031 0.984375 -7.578125 0.984375 -8.640625 C 0.984375 -9.703125 1.132812 -10.695312 1.4375 -11.625 C 1.738281 -12.550781 2.160156 -13.378906 2.703125 -14.109375 C 3.253906 -14.847656 3.898438 -15.476562 4.640625 -16 C 5.390625 -16.53125 6.210938 -16.9375 7.109375 -17.21875 C 8.003906 -17.5 8.941406 -17.640625 9.921875 -17.640625 C 11.179688 -17.640625 12.34375 -17.421875 13.40625 -16.984375 C 14.476562 -16.546875 15.421875 -15.941406 16.234375 -15.171875 C 16.335938 -15.066406 16.382812 -14.957031 16.375 -14.84375 C 16.363281 -14.738281 16.304688 -14.632812 16.203125 -14.53125 L 15.203125 -13.734375 C 14.992188 -13.535156 14.78125 -13.535156 14.5625 -13.734375 C 13.945312 -14.296875 13.242188 -14.734375 12.453125 -15.046875 C 11.671875 -15.359375 10.828125 -15.515625 9.921875 -15.515625 C 9.003906 -15.515625 8.132812 -15.347656 7.3125 -15.015625 C 6.5 -14.691406 5.785156 -14.222656 5.171875 -13.609375 C 4.554688 -13.003906 4.070312 -12.28125 3.71875 -11.4375 C 3.363281 -10.601562 3.1875 -9.679688 3.1875 -8.671875 C 3.1875 -7.648438 3.363281 -6.71875 3.71875 -5.875 C 4.070312 -5.03125 4.554688 -4.300781 5.171875 -3.6875 C 5.796875 -3.070312 6.515625 -2.597656 7.328125 -2.265625 C 8.148438 -1.929688 9.03125 -1.765625 9.96875 -1.765625 C 10.851562 -1.765625 11.6875 -1.921875 12.46875 -2.234375 C 13.257812 -2.554688 13.957031 -2.992188 14.5625 -3.546875 C 14.769531 -3.742188 14.984375 -3.75 15.203125 -3.5625 L 16.203125 -2.78125 C 16.453125 -2.5625 16.472656 -2.351562 16.265625 -2.15625 C 15.472656 -1.375 14.535156 -0.757812 13.453125 -0.3125 C 12.367188 0.132812 11.203125 0.359375 9.953125 0.359375 Z M 9.953125 0.359375 "/></g></g></g><g fill="#ffffff" fill-opacity="1"><g transform="translate(123.941373, 25.880966)"><g><path d="M 6.890625 0.234375 C 6.066406 0.234375 5.296875 0.09375 4.578125 -0.1875 C 3.867188 -0.46875 3.242188 -0.863281 2.703125 -1.375 C 2.171875 -1.894531 1.75 -2.507812 1.4375 -3.21875 C 1.132812 -3.9375 0.984375 -4.726562 0.984375 -5.59375 C 0.984375 -6.457031 1.132812 -7.242188 1.4375 -7.953125 C 1.75 -8.671875 2.171875 -9.289062 2.703125 -9.8125 C 3.242188 -10.332031 3.867188 -10.734375 4.578125 -11.015625 C 5.296875 -11.296875 6.066406 -11.4375 6.890625 -11.4375 C 7.710938 -11.4375 8.476562 -11.296875 9.1875 -11.015625 C 9.90625 -10.734375 10.53125 -10.332031 11.0625 -9.8125 C 11.601562 -9.289062 12.023438 -8.671875 12.328125 -7.953125 C 12.628906 -7.242188 12.78125 -6.457031 12.78125 -5.59375 C 12.78125 -4.726562 12.628906 -3.9375 12.328125 -3.21875 C 12.023438 -2.507812 11.601562 -1.894531 11.0625 -1.375 C 10.53125 -0.863281 9.90625 -0.46875 9.1875 -0.1875 C 8.476562 0.09375 7.710938 0.234375 6.890625 0.234375 Z M 6.890625 -1.703125 C 7.429688 -1.703125 7.929688 -1.796875 8.390625 -1.984375 C 8.859375 -2.171875 9.269531 -2.429688 9.625 -2.765625 C 9.976562 -3.109375 10.253906 -3.519531 10.453125 -4 C 10.648438 -4.476562 10.75 -5.007812 10.75 -5.59375 C 10.75 -6.175781 10.648438 -6.707031 10.453125 -7.1875 C 10.253906 -7.664062 9.976562 -8.078125 9.625 -8.421875 C 9.269531 -8.765625 8.859375 -9.023438 8.390625 -9.203125 C 7.929688 -9.390625 7.429688 -9.484375 6.890625 -9.484375 C 6.347656 -9.484375 5.84375 -9.390625 5.375 -9.203125 C 4.914062 -9.023438 4.507812 -8.765625 4.15625 -8.421875 C 3.800781 -8.078125 3.523438 -7.664062 3.328125 -7.1875 C 3.128906 -6.707031 3.03125 -6.175781 3.03125 -5.59375 C 3.03125 -5.007812 3.128906 -4.476562 3.328125 -4 C 3.523438 -3.519531 3.800781 -3.109375 4.15625 -2.765625 C 4.507812 -2.429688 4.914062 -2.171875 5.375 -1.984375 C 5.84375 -1.796875 6.347656 -1.703125 6.890625 -1.703125 Z M 6.890625 -1.703125 "/></g></g></g><g fill="#ffffff" fill-opacity="1"><g transform="translate(136.443346, 25.880966)"><g><path d="M 6.65625 -11.4375 C 7.320312 -11.4375 7.90625 -11.320312 8.40625 -11.09375 C 8.914062 -10.875 9.34375 -10.5625 9.6875 -10.15625 C 10.03125 -9.75 10.289062 -9.28125 10.46875 -8.75 C 10.644531 -8.21875 10.734375 -7.644531 10.734375 -7.03125 L 10.734375 -0.46875 C 10.734375 -0.15625 10.582031 0 10.28125 0 L 9.15625 0 C 8.84375 0 8.6875 -0.15625 8.6875 -0.46875 L 8.6875 -6.890625 C 8.6875 -7.429688 8.582031 -7.894531 8.375 -8.28125 C 8.175781 -8.664062 7.894531 -8.960938 7.53125 -9.171875 C 7.164062 -9.390625 6.738281 -9.5 6.25 -9.5 C 5.78125 -9.5 5.335938 -9.394531 4.921875 -9.1875 C 4.515625 -8.988281 4.1875 -8.6875 3.9375 -8.28125 C 3.6875 -7.875 3.5625 -7.367188 3.5625 -6.765625 L 3.5625 -0.46875 C 3.5625 -0.15625 3.40625 0 3.09375 0 L 1.96875 0 C 1.664062 0 1.515625 -0.15625 1.515625 -0.46875 L 1.515625 -10.734375 C 1.515625 -11.046875 1.664062 -11.203125 1.96875 -11.203125 L 2.59375 -11.203125 C 2.882812 -11.203125 3.054688 -11.0625 3.109375 -10.78125 L 3.28125 -9.890625 C 3.757812 -10.410156 4.289062 -10.796875 4.875 -11.046875 C 5.46875 -11.304688 6.0625 -11.4375 6.65625 -11.4375 Z M 6.65625 -11.4375 "/></g></g></g><g fill="#ffffff" fill-opacity="1"><g transform="translate(147.280289, 25.880966)"><g><path d="M 4.625 0.234375 C 4.101562 0.234375 3.566406 0.179688 3.015625 0.078125 C 2.460938 -0.015625 1.90625 -0.164062 1.34375 -0.375 C 1.164062 -0.4375 1.0625 -0.515625 1.03125 -0.609375 C 1.007812 -0.710938 1.023438 -0.828125 1.078125 -0.953125 L 1.46875 -1.984375 C 1.53125 -2.117188 1.601562 -2.207031 1.6875 -2.25 C 1.78125 -2.289062 1.910156 -2.269531 2.078125 -2.1875 C 2.523438 -1.976562 2.96875 -1.816406 3.40625 -1.703125 C 3.851562 -1.597656 4.265625 -1.546875 4.640625 -1.546875 C 5.140625 -1.546875 5.546875 -1.644531 5.859375 -1.84375 C 6.179688 -2.050781 6.34375 -2.40625 6.34375 -2.90625 C 6.34375 -3.164062 6.234375 -3.40625 6.015625 -3.625 C 5.796875 -3.851562 5.507812 -4.070312 5.15625 -4.28125 C 4.800781 -4.488281 4.425781 -4.703125 4.03125 -4.921875 C 3.6875 -5.109375 3.335938 -5.304688 2.984375 -5.515625 C 2.640625 -5.734375 2.328125 -5.96875 2.046875 -6.21875 C 1.765625 -6.476562 1.539062 -6.773438 1.375 -7.109375 C 1.207031 -7.453125 1.125 -7.835938 1.125 -8.265625 C 1.125 -8.941406 1.285156 -9.515625 1.609375 -9.984375 C 1.941406 -10.453125 2.382812 -10.8125 2.9375 -11.0625 C 3.5 -11.3125 4.113281 -11.4375 4.78125 -11.4375 C 5.632812 -11.4375 6.566406 -11.269531 7.578125 -10.9375 C 7.722656 -10.894531 7.816406 -10.820312 7.859375 -10.71875 C 7.910156 -10.613281 7.910156 -10.492188 7.859375 -10.359375 L 7.515625 -9.390625 C 7.410156 -9.109375 7.210938 -9.023438 6.921875 -9.140625 C 6.148438 -9.441406 5.445312 -9.59375 4.8125 -9.59375 C 4.320312 -9.59375 3.921875 -9.488281 3.609375 -9.28125 C 3.304688 -9.082031 3.15625 -8.796875 3.15625 -8.421875 C 3.15625 -8.128906 3.269531 -7.867188 3.5 -7.640625 C 3.738281 -7.421875 4.046875 -7.210938 4.421875 -7.015625 C 4.796875 -6.816406 5.195312 -6.601562 5.625 -6.375 C 5.96875 -6.195312 6.3125 -6 6.65625 -5.78125 C 7 -5.570312 7.304688 -5.335938 7.578125 -5.078125 C 7.859375 -4.816406 8.082031 -4.515625 8.25 -4.171875 C 8.414062 -3.835938 8.5 -3.445312 8.5 -3 C 8.5 -2.425781 8.394531 -1.929688 8.1875 -1.515625 C 7.976562 -1.109375 7.695312 -0.773438 7.34375 -0.515625 C 6.988281 -0.253906 6.578125 -0.0664062 6.109375 0.046875 C 5.640625 0.171875 5.144531 0.234375 4.625 0.234375 Z M 4.625 0.234375 "/></g></g></g><g fill="#ffffff" fill-opacity="1"><g transform="translate(155.439687, 25.880966)"><g><path d="M 5.921875 0.234375 C 5.066406 0.234375 4.289062 0.0664062 3.59375 -0.265625 C 2.90625 -0.609375 2.359375 -1.113281 1.953125 -1.78125 C 1.554688 -2.457031 1.359375 -3.285156 1.359375 -4.265625 L 1.359375 -10.734375 C 1.359375 -11.046875 1.515625 -11.203125 1.828125 -11.203125 L 2.9375 -11.203125 C 3.25 -11.203125 3.40625 -11.046875 3.40625 -10.734375 L 3.40625 -4.296875 C 3.40625 -3.703125 3.515625 -3.210938 3.734375 -2.828125 C 3.960938 -2.453125 4.265625 -2.171875 4.640625 -1.984375 C 5.015625 -1.804688 5.441406 -1.71875 5.921875 -1.71875 C 6.410156 -1.71875 6.84375 -1.804688 7.21875 -1.984375 C 7.59375 -2.171875 7.890625 -2.457031 8.109375 -2.84375 C 8.335938 -3.226562 8.453125 -3.710938 8.453125 -4.296875 L 8.453125 -10.734375 C 8.453125 -11.046875 8.601562 -11.203125 8.90625 -11.203125 L 10.03125 -11.203125 C 10.332031 -11.203125 10.484375 -11.046875 10.484375 -10.734375 L 10.484375 -4.265625 C 10.484375 -3.523438 10.367188 -2.875 10.140625 -2.3125 C 9.910156 -1.757812 9.585938 -1.289062 9.171875 -0.90625 C 8.753906 -0.53125 8.269531 -0.242188 7.71875 -0.046875 C 7.164062 0.140625 6.566406 0.234375 5.921875 0.234375 Z M 5.921875 0.234375 "/></g></g></g><g fill="#ffffff" fill-opacity="1"><g transform="translate(165.995382, 25.880966)"><g><path d="M 4.5 0.234375 C 3.914062 0.234375 3.390625 0.117188 2.921875 -0.109375 C 2.460938 -0.347656 2.097656 -0.691406 1.828125 -1.140625 C 1.566406 -1.597656 1.4375 -2.148438 1.4375 -2.796875 L 1.4375 -16.828125 C 1.4375 -17.128906 1.59375 -17.28125 1.90625 -17.28125 L 3.015625 -17.28125 C 3.328125 -17.28125 3.484375 -17.128906 3.484375 -16.828125 L 3.484375 -3.203125 C 3.484375 -2.648438 3.585938 -2.242188 3.796875 -1.984375 C 4.015625 -1.722656 4.316406 -1.59375 4.703125 -1.59375 C 4.804688 -1.59375 4.925781 -1.601562 5.0625 -1.625 C 5.195312 -1.644531 5.335938 -1.679688 5.484375 -1.734375 C 5.765625 -1.835938 5.96875 -1.75 6.09375 -1.46875 L 6.359375 -0.640625 C 6.460938 -0.359375 6.375 -0.15625 6.09375 -0.03125 C 5.820312 0.09375 5.550781 0.164062 5.28125 0.1875 C 5.007812 0.21875 4.75 0.234375 4.5 0.234375 Z M 4.5 0.234375 "/></g></g></g><g fill="#ffffff" fill-opacity="1"><g transform="translate(171.612235, 25.880966)"><g><path d="M 5.21875 0.234375 C 4.632812 0.234375 4.109375 0.117188 3.640625 -0.109375 C 3.179688 -0.347656 2.816406 -0.691406 2.546875 -1.140625 C 2.285156 -1.597656 2.15625 -2.148438 2.15625 -2.796875 L 2.15625 -9.40625 L 1.1875 -9.40625 C 0.882812 -9.40625 0.734375 -9.5625 0.734375 -9.875 L 0.734375 -10.734375 C 0.734375 -11.046875 0.882812 -11.203125 1.1875 -11.203125 L 2.15625 -11.203125 L 2.15625 -14.59375 C 2.15625 -14.90625 2.304688 -15.0625 2.609375 -15.0625 L 3.734375 -15.0625 C 4.046875 -15.0625 4.203125 -14.90625 4.203125 -14.59375 L 4.203125 -11.203125 L 6.5 -11.203125 C 6.8125 -11.203125 6.96875 -11.046875 6.96875 -10.734375 L 6.96875 -9.875 C 6.96875 -9.5625 6.8125 -9.40625 6.5 -9.40625 L 4.203125 -9.40625 L 4.203125 -3.203125 C 4.203125 -2.648438 4.304688 -2.242188 4.515625 -1.984375 C 4.734375 -1.722656 5.035156 -1.59375 5.421875 -1.59375 C 5.523438 -1.59375 5.644531 -1.601562 5.78125 -1.625 C 5.914062 -1.644531 6.0625 -1.679688 6.21875 -1.734375 C 6.488281 -1.835938 6.6875 -1.75 6.8125 -1.46875 L 7.0625 -0.640625 C 7.125 -0.503906 7.132812 -0.378906 7.09375 -0.265625 C 7.050781 -0.160156 6.957031 -0.0820312 6.8125 -0.03125 C 6.519531 0.0820312 6.242188 0.15625 5.984375 0.1875 C 5.722656 0.21875 5.46875 0.234375 5.21875 0.234375 Z M 5.21875 0.234375 "/></g></g></g><g fill="#ffffff" fill-opacity="1"><g transform="translate(178.196605, 25.880966)"><g><path d="M 2.53125 -12.65625 C 2.113281 -12.65625 1.769531 -12.785156 1.5 -13.046875 C 1.226562 -13.316406 1.09375 -13.660156 1.09375 -14.078125 C 1.09375 -14.484375 1.226562 -14.820312 1.5 -15.09375 C 1.769531 -15.375 2.113281 -15.515625 2.53125 -15.515625 C 2.9375 -15.515625 3.273438 -15.375 3.546875 -15.09375 C 3.816406 -14.820312 3.953125 -14.484375 3.953125 -14.078125 C 3.953125 -13.660156 3.816406 -13.316406 3.546875 -13.046875 C 3.273438 -12.785156 2.9375 -12.65625 2.53125 -12.65625 Z M 3.09375 0 L 1.96875 0 C 1.664062 0 1.515625 -0.15625 1.515625 -0.46875 L 1.515625 -10.734375 C 1.515625 -11.046875 1.664062 -11.203125 1.96875 -11.203125 L 3.09375 -11.203125 C 3.40625 -11.203125 3.5625 -11.046875 3.5625 -10.734375 L 3.5625 -0.46875 C 3.5625 -0.15625 3.40625 0 3.09375 0 Z M 3.09375 0 "/></g></g></g><g fill="#ffffff" fill-opacity="1"><g transform="translate(181.979681, 25.880966)"><g><path d="M 6.65625 -11.4375 C 7.320312 -11.4375 7.90625 -11.320312 8.40625 -11.09375 C 8.914062 -10.875 9.34375 -10.5625 9.6875 -10.15625 C 10.03125 -9.75 10.289062 -9.28125 10.46875 -8.75 C 10.644531 -8.21875 10.734375 -7.644531 10.734375 -7.03125 L 10.734375 -0.46875 C 10.734375 -0.15625 10.582031 0 10.28125 0 L 9.15625 0 C 8.84375 0 8.6875 -0.15625 8.6875 -0.46875 L 8.6875 -6.890625 C 8.6875 -7.429688 8.582031 -7.894531 8.375 -8.28125 C 8.175781 -8.664062 7.894531 -8.960938 7.53125 -9.171875 C 7.164062 -9.390625 6.738281 -9.5 6.25 -9.5 C 5.78125 -9.5 5.335938 -9.394531 4.921875 -9.1875 C 4.515625 -8.988281 4.1875 -8.6875 3.9375 -8.28125 C 3.6875 -7.875 3.5625 -7.367188 3.5625 -6.765625 L 3.5625 -0.46875 C 3.5625 -0.15625 3.40625 0 3.09375 0 L 1.96875 0 C 1.664062 0 1.515625 -0.15625 1.515625 -0.46875 L 1.515625 -10.734375 C 1.515625 -11.046875 1.664062 -11.203125 1.96875 -11.203125 L 2.59375 -11.203125 C 2.882812 -11.203125 3.054688 -11.0625 3.109375 -10.78125 L 3.28125 -9.890625 C 3.757812 -10.410156 4.289062 -10.796875 4.875 -11.046875 C 5.46875 -11.304688 6.0625 -11.4375 6.65625 -11.4375 Z M 6.65625 -11.4375 "/></g></g></g><g fill="#ffffff" fill-opacity="1"><g transform="translate(192.816626, 25.880966)"><g><path d="M 11.65625 -11.203125 L 12.328125 -11.203125 C 12.617188 -11.203125 12.765625 -11.046875 12.765625 -10.734375 L 12.765625 -0.140625 C 12.765625 0.816406 12.617188 1.65625 12.328125 2.375 C 12.035156 3.09375 11.628906 3.691406 11.109375 4.171875 C 10.585938 4.648438 9.988281 5.003906 9.3125 5.234375 C 8.644531 5.472656 7.925781 5.59375 7.15625 5.59375 C 6.039062 5.59375 5.019531 5.347656 4.09375 4.859375 C 3.175781 4.378906 2.421875 3.734375 1.828125 2.921875 C 1.671875 2.679688 1.722656 2.476562 1.984375 2.3125 L 2.703125 1.625 C 2.929688 1.488281 3.132812 1.546875 3.3125 1.796875 C 3.75 2.347656 4.285156 2.789062 4.921875 3.125 C 5.566406 3.46875 6.296875 3.640625 7.109375 3.640625 C 7.585938 3.640625 8.039062 3.566406 8.46875 3.421875 C 8.894531 3.285156 9.273438 3.066406 9.609375 2.765625 C 9.941406 2.460938 10.203125 2.070312 10.390625 1.59375 C 10.585938 1.125 10.6875 0.550781 10.6875 -0.125 L 10.6875 -1.578125 C 10.175781 -0.992188 9.570312 -0.554688 8.875 -0.265625 C 8.175781 0.015625 7.453125 0.15625 6.703125 0.15625 C 5.910156 0.15625 5.164062 0.0078125 4.46875 -0.28125 C 3.78125 -0.582031 3.171875 -0.992188 2.640625 -1.515625 C 2.117188 -2.046875 1.710938 -2.65625 1.421875 -3.34375 C 1.128906 -4.039062 0.984375 -4.789062 0.984375 -5.59375 C 0.984375 -6.394531 1.128906 -7.144531 1.421875 -7.84375 C 1.710938 -8.550781 2.117188 -9.171875 2.640625 -9.703125 C 3.171875 -10.242188 3.78125 -10.664062 4.46875 -10.96875 C 5.164062 -11.28125 5.910156 -11.4375 6.703125 -11.4375 C 7.503906 -11.4375 8.273438 -11.269531 9.015625 -10.9375 C 9.765625 -10.613281 10.398438 -10.144531 10.921875 -9.53125 L 11.15625 -10.78125 C 11.207031 -11.0625 11.375 -11.203125 11.65625 -11.203125 Z M 6.875 -1.78125 C 7.394531 -1.78125 7.890625 -1.878906 8.359375 -2.078125 C 8.828125 -2.273438 9.234375 -2.550781 9.578125 -2.90625 C 9.929688 -3.257812 10.207031 -3.671875 10.40625 -4.140625 C 10.613281 -4.609375 10.71875 -5.109375 10.71875 -5.640625 C 10.71875 -6.171875 10.613281 -6.664062 10.40625 -7.125 C 10.207031 -7.59375 9.929688 -8.003906 9.578125 -8.359375 C 9.234375 -8.710938 8.828125 -8.988281 8.359375 -9.1875 C 7.890625 -9.382812 7.394531 -9.484375 6.875 -9.484375 C 6.351562 -9.484375 5.859375 -9.382812 5.390625 -9.1875 C 4.921875 -8.988281 4.507812 -8.710938 4.15625 -8.359375 C 3.800781 -8.003906 3.519531 -7.59375 3.3125 -7.125 C 3.113281 -6.664062 3.015625 -6.171875 3.015625 -5.640625 C 3.015625 -5.109375 3.113281 -4.609375 3.3125 -4.140625 C 3.519531 -3.671875 3.800781 -3.257812 4.15625 -2.90625 C 4.507812 -2.550781 4.921875 -2.273438 5.390625 -2.078125 C 5.859375 -1.878906 6.351562 -1.78125 6.875 -1.78125 Z M 6.875 -1.78125 "/></g></g></g><g fill="#ffffff" fill-opacity="1"><g transform="translate(92.463816, 36.164463)"><g><path d="M 2.84375 0.0625 C 2.40625 0.0625 2.007812 -0.015625 1.65625 -0.171875 C 1.3125 -0.328125 1.039062 -0.539062 0.84375 -0.8125 C 0.644531 -1.09375 0.546875 -1.414062 0.546875 -1.78125 L 1.46875 -1.78125 C 1.5 -1.46875 1.628906 -1.203125 1.859375 -0.984375 C 2.085938 -0.773438 2.414062 -0.671875 2.84375 -0.671875 C 3.257812 -0.671875 3.585938 -0.769531 3.828125 -0.96875 C 4.066406 -1.175781 4.1875 -1.445312 4.1875 -1.78125 C 4.1875 -2.03125 4.113281 -2.234375 3.96875 -2.390625 C 3.832031 -2.554688 3.65625 -2.679688 3.4375 -2.765625 C 3.226562 -2.847656 2.945312 -2.9375 2.59375 -3.03125 C 2.15625 -3.144531 1.800781 -3.257812 1.53125 -3.375 C 1.269531 -3.488281 1.046875 -3.664062 0.859375 -3.90625 C 0.671875 -4.15625 0.578125 -4.484375 0.578125 -4.890625 C 0.578125 -5.253906 0.671875 -5.578125 0.859375 -5.859375 C 1.046875 -6.140625 1.304688 -6.351562 1.640625 -6.5 C 1.972656 -6.65625 2.351562 -6.734375 2.78125 -6.734375 C 3.40625 -6.734375 3.914062 -6.578125 4.3125 -6.265625 C 4.71875 -5.953125 4.945312 -5.539062 5 -5.03125 L 4.03125 -5.03125 C 4 -5.28125 3.863281 -5.503906 3.625 -5.703125 C 3.394531 -5.898438 3.085938 -6 2.703125 -6 C 2.335938 -6 2.039062 -5.90625 1.8125 -5.71875 C 1.582031 -5.53125 1.46875 -5.265625 1.46875 -4.921875 C 1.46875 -4.679688 1.535156 -4.484375 1.671875 -4.328125 C 1.804688 -4.179688 1.972656 -4.066406 2.171875 -3.984375 C 2.378906 -3.898438 2.664062 -3.8125 3.03125 -3.71875 C 3.46875 -3.59375 3.816406 -3.46875 4.078125 -3.34375 C 4.347656 -3.226562 4.578125 -3.046875 4.765625 -2.796875 C 4.960938 -2.554688 5.0625 -2.226562 5.0625 -1.8125 C 5.0625 -1.488281 4.972656 -1.179688 4.796875 -0.890625 C 4.628906 -0.609375 4.375 -0.378906 4.03125 -0.203125 C 3.695312 -0.0234375 3.300781 0.0625 2.84375 0.0625 Z M 2.84375 0.0625 "/></g></g></g><g fill="#ffffff" fill-opacity="1"><g transform="translate(98.066682, 36.164463)"><g><path d="M 1.796875 -4.515625 L 1.796875 -1.4375 C 1.796875 -1.175781 1.847656 -0.992188 1.953125 -0.890625 C 2.066406 -0.785156 2.253906 -0.734375 2.515625 -0.734375 L 3.15625 -0.734375 L 3.15625 0 L 2.375 0 C 1.894531 0 1.53125 -0.109375 1.28125 -0.328125 C 1.039062 -0.554688 0.921875 -0.925781 0.921875 -1.4375 L 0.921875 -4.515625 L 0.25 -4.515625 L 0.25 -5.234375 L 0.921875 -5.234375 L 0.921875 -6.546875 L 1.796875 -6.546875 L 1.796875 -5.234375 L 3.15625 -5.234375 L 3.15625 -4.515625 Z M 1.796875 -4.515625 "/></g></g></g><g fill="#ffffff" fill-opacity="1"><g transform="translate(101.541034, 36.164463)"><g><path d="M 1.609375 -4.375 C 1.753906 -4.675781 1.96875 -4.910156 2.25 -5.078125 C 2.539062 -5.242188 2.890625 -5.328125 3.296875 -5.328125 L 3.296875 -4.4375 L 3.0625 -4.4375 C 2.09375 -4.4375 1.609375 -3.90625 1.609375 -2.84375 L 1.609375 0 L 0.734375 0 L 0.734375 -5.234375 L 1.609375 -5.234375 Z M 1.609375 -4.375 "/></g></g></g><g fill="#ffffff" fill-opacity="1"><g transform="translate(105.101292, 36.164463)"><g><path d="M 1.1875 -6.078125 C 1.019531 -6.078125 0.878906 -6.132812 0.765625 -6.25 C 0.648438 -6.363281 0.59375 -6.503906 0.59375 -6.671875 C 0.59375 -6.835938 0.648438 -6.976562 0.765625 -7.09375 C 0.878906 -7.207031 1.019531 -7.265625 1.1875 -7.265625 C 1.34375 -7.265625 1.472656 -7.207031 1.578125 -7.09375 C 1.691406 -6.976562 1.75 -6.835938 1.75 -6.671875 C 1.75 -6.503906 1.691406 -6.363281 1.578125 -6.25 C 1.472656 -6.132812 1.34375 -6.078125 1.1875 -6.078125 Z M 1.609375 -5.234375 L 1.609375 0 L 0.734375 0 L 0.734375 -5.234375 Z M 1.609375 -5.234375 "/></g></g></g><g fill="#ffffff" fill-opacity="1"><g transform="translate(107.449348, 36.164463)"><g><path d="M 2.6875 -0.796875 L 4.3125 -5.234375 L 5.234375 -5.234375 L 3.171875 0 L 2.171875 0 L 0.109375 -5.234375 L 1.046875 -5.234375 Z M 2.6875 -0.796875 "/></g></g></g><g fill="#ffffff" fill-opacity="1"><g transform="translate(112.804051, 36.164463)"><g><path d="M 1.1875 -6.078125 C 1.019531 -6.078125 0.878906 -6.132812 0.765625 -6.25 C 0.648438 -6.363281 0.59375 -6.503906 0.59375 -6.671875 C 0.59375 -6.835938 0.648438 -6.976562 0.765625 -7.09375 C 0.878906 -7.207031 1.019531 -7.265625 1.1875 -7.265625 C 1.34375 -7.265625 1.472656 -7.207031 1.578125 -7.09375 C 1.691406 -6.976562 1.75 -6.835938 1.75 -6.671875 C 1.75 -6.503906 1.691406 -6.363281 1.578125 -6.25 C 1.472656 -6.132812 1.34375 -6.078125 1.1875 -6.078125 Z M 1.609375 -5.234375 L 1.609375 0 L 0.734375 0 L 0.734375 -5.234375 Z M 1.609375 -5.234375 "/></g></g></g><g fill="#ffffff" fill-opacity="1"><g transform="translate(115.152107, 36.164463)"><g><path d="M 3.28125 -5.328125 C 3.914062 -5.328125 4.429688 -5.132812 4.828125 -4.75 C 5.222656 -4.363281 5.421875 -3.804688 5.421875 -3.078125 L 5.421875 0 L 4.5625 0 L 4.5625 -2.953125 C 4.5625 -3.484375 4.429688 -3.882812 4.171875 -4.15625 C 3.910156 -4.4375 3.554688 -4.578125 3.109375 -4.578125 C 2.648438 -4.578125 2.285156 -4.429688 2.015625 -4.140625 C 1.742188 -3.859375 1.609375 -3.441406 1.609375 -2.890625 L 1.609375 0 L 0.734375 0 L 0.734375 -5.234375 L 1.609375 -5.234375 L 1.609375 -4.484375 C 1.773438 -4.753906 2.003906 -4.960938 2.296875 -5.109375 C 2.597656 -5.253906 2.925781 -5.328125 3.28125 -5.328125 Z M 3.28125 -5.328125 "/></g></g></g><g fill="#ffffff" fill-opacity="1"><g transform="translate(121.260856, 36.164463)"><g><path d="M 2.890625 -5.3125 C 3.347656 -5.3125 3.742188 -5.210938 4.078125 -5.015625 C 4.421875 -4.816406 4.675781 -4.570312 4.84375 -4.28125 L 4.84375 -5.234375 L 5.71875 -5.234375 L 5.71875 0.109375 C 5.71875 0.585938 5.613281 1.015625 5.40625 1.390625 C 5.207031 1.765625 4.914062 2.054688 4.53125 2.265625 C 4.15625 2.472656 3.71875 2.578125 3.21875 2.578125 C 2.53125 2.578125 1.957031 2.414062 1.5 2.09375 C 1.039062 1.769531 0.769531 1.328125 0.6875 0.765625 L 1.546875 0.765625 C 1.640625 1.078125 1.835938 1.332031 2.140625 1.53125 C 2.441406 1.726562 2.800781 1.828125 3.21875 1.828125 C 3.695312 1.828125 4.085938 1.675781 4.390625 1.375 C 4.691406 1.070312 4.84375 0.648438 4.84375 0.109375 L 4.84375 -0.984375 C 4.664062 -0.679688 4.410156 -0.425781 4.078125 -0.21875 C 3.742188 -0.0195312 3.347656 0.078125 2.890625 0.078125 C 2.429688 0.078125 2.007812 -0.03125 1.625 -0.25 C 1.25 -0.476562 0.953125 -0.800781 0.734375 -1.21875 C 0.515625 -1.632812 0.40625 -2.109375 0.40625 -2.640625 C 0.40625 -3.171875 0.515625 -3.640625 0.734375 -4.046875 C 0.953125 -4.453125 1.25 -4.765625 1.625 -4.984375 C 2.007812 -5.203125 2.429688 -5.3125 2.890625 -5.3125 Z M 4.84375 -2.625 C 4.84375 -3.019531 4.757812 -3.363281 4.59375 -3.65625 C 4.4375 -3.945312 4.222656 -4.171875 3.953125 -4.328125 C 3.679688 -4.484375 3.382812 -4.5625 3.0625 -4.5625 C 2.738281 -4.5625 2.441406 -4.484375 2.171875 -4.328125 C 1.910156 -4.179688 1.695312 -3.960938 1.53125 -3.671875 C 1.375 -3.378906 1.296875 -3.035156 1.296875 -2.640625 C 1.296875 -2.234375 1.375 -1.878906 1.53125 -1.578125 C 1.695312 -1.285156 1.910156 -1.0625 2.171875 -0.90625 C 2.441406 -0.75 2.738281 -0.671875 3.0625 -0.671875 C 3.382812 -0.671875 3.679688 -0.75 3.953125 -0.90625 C 4.222656 -1.0625 4.4375 -1.285156 4.59375 -1.578125 C 4.757812 -1.878906 4.84375 -2.226562 4.84375 -2.625 Z M 4.84375 -2.625 "/></g></g></g><g fill="#ffffff" fill-opacity="1"><g transform="translate(127.713223, 36.164463)"><g/></g></g><g fill="#ffffff" fill-opacity="1"><g transform="translate(130.261715, 36.164463)"><g><path d="M 2.859375 -4.515625 L 1.765625 -4.515625 L 1.765625 0 L 0.890625 0 L 0.890625 -4.515625 L 0.21875 -4.515625 L 0.21875 -5.234375 L 0.890625 -5.234375 L 0.890625 -5.609375 C 0.890625 -6.191406 1.039062 -6.617188 1.34375 -6.890625 C 1.644531 -7.160156 2.132812 -7.296875 2.8125 -7.296875 L 2.8125 -6.5625 C 2.425781 -6.5625 2.15625 -6.488281 2 -6.34375 C 1.84375 -6.195312 1.765625 -5.953125 1.765625 -5.609375 L 1.765625 -5.234375 L 2.859375 -5.234375 Z M 2.859375 -4.515625 "/></g></g></g><g fill="#ffffff" fill-opacity="1"><g transform="translate(133.401996, 36.164463)"><g><path d="M 3.015625 0.078125 C 2.523438 0.078125 2.082031 -0.03125 1.6875 -0.25 C 1.289062 -0.46875 0.976562 -0.78125 0.75 -1.1875 C 0.519531 -1.601562 0.40625 -2.082031 0.40625 -2.625 C 0.40625 -3.15625 0.519531 -3.625 0.75 -4.03125 C 0.988281 -4.445312 1.304688 -4.765625 1.703125 -4.984375 C 2.109375 -5.203125 2.5625 -5.3125 3.0625 -5.3125 C 3.550781 -5.3125 3.992188 -5.203125 4.390625 -4.984375 C 4.796875 -4.765625 5.113281 -4.453125 5.34375 -4.046875 C 5.582031 -3.640625 5.703125 -3.164062 5.703125 -2.625 C 5.703125 -2.082031 5.582031 -1.601562 5.34375 -1.1875 C 5.101562 -0.78125 4.78125 -0.46875 4.375 -0.25 C 3.96875 -0.03125 3.515625 0.078125 3.015625 0.078125 Z M 3.015625 -0.671875 C 3.328125 -0.671875 3.617188 -0.742188 3.890625 -0.890625 C 4.171875 -1.035156 4.394531 -1.253906 4.5625 -1.546875 C 4.726562 -1.847656 4.8125 -2.207031 4.8125 -2.625 C 4.8125 -3.039062 4.726562 -3.394531 4.5625 -3.6875 C 4.394531 -3.988281 4.175781 -4.207031 3.90625 -4.34375 C 3.644531 -4.488281 3.359375 -4.5625 3.046875 -4.5625 C 2.722656 -4.5625 2.429688 -4.488281 2.171875 -4.34375 C 1.910156 -4.207031 1.695312 -3.988281 1.53125 -3.6875 C 1.375 -3.394531 1.296875 -3.039062 1.296875 -2.625 C 1.296875 -2.195312 1.375 -1.835938 1.53125 -1.546875 C 1.6875 -1.253906 1.894531 -1.035156 2.15625 -0.890625 C 2.414062 -0.742188 2.703125 -0.671875 3.015625 -0.671875 Z M 3.015625 -0.671875 "/></g></g></g><g fill="#ffffff" fill-opacity="1"><g transform="translate(139.510746, 36.164463)"><g><path d="M 1.609375 -4.375 C 1.753906 -4.675781 1.96875 -4.910156 2.25 -5.078125 C 2.539062 -5.242188 2.890625 -5.328125 3.296875 -5.328125 L 3.296875 -4.4375 L 3.0625 -4.4375 C 2.09375 -4.4375 1.609375 -3.90625 1.609375 -2.84375 L 1.609375 0 L 0.734375 0 L 0.734375 -5.234375 L 1.609375 -5.234375 Z M 1.609375 -4.375 "/></g></g></g><g fill="#ffffff" fill-opacity="1"><g transform="translate(143.071004, 36.164463)"><g/></g></g><g fill="#ffffff" fill-opacity="1"><g transform="translate(145.619496, 36.164463)"><g><path d="M 1.609375 -5.953125 L 1.609375 -3.71875 L 4.03125 -3.71875 L 4.03125 -3 L 1.609375 -3 L 1.609375 -0.71875 L 4.3125 -0.71875 L 4.3125 0 L 0.734375 0 L 0.734375 -6.65625 L 4.3125 -6.65625 L 4.3125 -5.953125 Z M 1.609375 -5.953125 "/></g></g></g><g fill="#ffffff" fill-opacity="1"><g transform="translate(150.516043, 36.164463)"><g><path d="M 2.859375 -4.515625 L 1.765625 -4.515625 L 1.765625 0 L 0.890625 0 L 0.890625 -4.515625 L 0.21875 -4.515625 L 0.21875 -5.234375 L 0.890625 -5.234375 L 0.890625 -5.609375 C 0.890625 -6.191406 1.039062 -6.617188 1.34375 -6.890625 C 1.644531 -7.160156 2.132812 -7.296875 2.8125 -7.296875 L 2.8125 -6.5625 C 2.425781 -6.5625 2.15625 -6.488281 2 -6.34375 C 1.84375 -6.195312 1.765625 -5.953125 1.765625 -5.609375 L 1.765625 -5.234375 L 2.859375 -5.234375 Z M 2.859375 -4.515625 "/></g></g></g><g fill="#ffffff" fill-opacity="1"><g transform="translate(153.656325, 36.164463)"><g><path d="M 2.859375 -4.515625 L 1.765625 -4.515625 L 1.765625 0 L 0.890625 0 L 0.890625 -4.515625 L 0.21875 -4.515625 L 0.21875 -5.234375 L 0.890625 -5.234375 L 0.890625 -5.609375 C 0.890625 -6.191406 1.039062 -6.617188 1.34375 -6.890625 C 1.644531 -7.160156 2.132812 -7.296875 2.8125 -7.296875 L 2.8125 -6.5625 C 2.425781 -6.5625 2.15625 -6.488281 2 -6.34375 C 1.84375 -6.195312 1.765625 -5.953125 1.765625 -5.609375 L 1.765625 -5.234375 L 2.859375 -5.234375 Z M 2.859375 -4.515625 "/></g></g></g><g fill="#ffffff" fill-opacity="1"><g transform="translate(156.796606, 36.164463)"><g><path d="M 1.1875 -6.078125 C 1.019531 -6.078125 0.878906 -6.132812 0.765625 -6.25 C 0.648438 -6.363281 0.59375 -6.503906 0.59375 -6.671875 C 0.59375 -6.835938 0.648438 -6.976562 0.765625 -7.09375 C 0.878906 -7.207031 1.019531 -7.265625 1.1875 -7.265625 C 1.34375 -7.265625 1.472656 -7.207031 1.578125 -7.09375 C 1.691406 -6.976562 1.75 -6.835938 1.75 -6.671875 C 1.75 -6.503906 1.691406 -6.363281 1.578125 -6.25 C 1.472656 -6.132812 1.34375 -6.078125 1.1875 -6.078125 Z M 1.609375 -5.234375 L 1.609375 0 L 0.734375 0 L 0.734375 -5.234375 Z M 1.609375 -5.234375 "/></g></g></g><g fill="#ffffff" fill-opacity="1"><g transform="translate(159.144662, 36.164463)"><g><path d="M 0.40625 -2.625 C 0.40625 -3.164062 0.515625 -3.640625 0.734375 -4.046875 C 0.953125 -4.453125 1.253906 -4.765625 1.640625 -4.984375 C 2.023438 -5.203125 2.460938 -5.3125 2.953125 -5.3125 C 3.597656 -5.3125 4.128906 -5.15625 4.546875 -4.84375 C 4.960938 -4.53125 5.238281 -4.097656 5.375 -3.546875 L 4.4375 -3.546875 C 4.351562 -3.867188 4.179688 -4.117188 3.921875 -4.296875 C 3.660156 -4.484375 3.335938 -4.578125 2.953125 -4.578125 C 2.460938 -4.578125 2.0625 -4.40625 1.75 -4.0625 C 1.445312 -3.726562 1.296875 -3.25 1.296875 -2.625 C 1.296875 -2 1.445312 -1.515625 1.75 -1.171875 C 2.0625 -0.828125 2.460938 -0.65625 2.953125 -0.65625 C 3.335938 -0.65625 3.65625 -0.742188 3.90625 -0.921875 C 4.164062 -1.097656 4.34375 -1.351562 4.4375 -1.6875 L 5.375 -1.6875 C 5.238281 -1.144531 4.957031 -0.710938 4.53125 -0.390625 C 4.113281 -0.078125 3.585938 0.078125 2.953125 0.078125 C 2.460938 0.078125 2.023438 -0.03125 1.640625 -0.25 C 1.253906 -0.46875 0.953125 -0.78125 0.734375 -1.1875 C 0.515625 -1.59375 0.40625 -2.070312 0.40625 -2.625 Z M 0.40625 -2.625 "/></g></g></g><g fill="#ffffff" fill-opacity="1"><g transform="translate(164.938427, 36.164463)"><g><path d="M 1.1875 -6.078125 C 1.019531 -6.078125 0.878906 -6.132812 0.765625 -6.25 C 0.648438 -6.363281 0.59375 -6.503906 0.59375 -6.671875 C 0.59375 -6.835938 0.648438 -6.976562 0.765625 -7.09375 C 0.878906 -7.207031 1.019531 -7.265625 1.1875 -7.265625 C 1.34375 -7.265625 1.472656 -7.207031 1.578125 -7.09375 C 1.691406 -6.976562 1.75 -6.835938 1.75 -6.671875 C 1.75 -6.503906 1.691406 -6.363281 1.578125 -6.25 C 1.472656 -6.132812 1.34375 -6.078125 1.1875 -6.078125 Z M 1.609375 -5.234375 L 1.609375 0 L 0.734375 0 L 0.734375 -5.234375 Z M 1.609375 -5.234375 "/></g></g></g><g fill="#ffffff" fill-opacity="1"><g transform="translate(167.286483, 36.164463)"><g><path d="M 5.515625 -2.8125 C 5.515625 -2.644531 5.503906 -2.472656 5.484375 -2.296875 L 1.296875 -2.296875 C 1.328125 -1.773438 1.503906 -1.367188 1.828125 -1.078125 C 2.148438 -0.796875 2.539062 -0.65625 3 -0.65625 C 3.375 -0.65625 3.6875 -0.738281 3.9375 -0.90625 C 4.1875 -1.082031 4.363281 -1.316406 4.46875 -1.609375 L 5.40625 -1.609375 C 5.257812 -1.109375 4.976562 -0.703125 4.5625 -0.390625 C 4.144531 -0.078125 3.625 0.078125 3 0.078125 C 2.5 0.078125 2.050781 -0.03125 1.65625 -0.25 C 1.269531 -0.46875 0.960938 -0.78125 0.734375 -1.1875 C 0.515625 -1.601562 0.40625 -2.082031 0.40625 -2.625 C 0.40625 -3.164062 0.515625 -3.640625 0.734375 -4.046875 C 0.953125 -4.453125 1.253906 -4.765625 1.640625 -4.984375 C 2.035156 -5.203125 2.488281 -5.3125 3 -5.3125 C 3.5 -5.3125 3.9375 -5.203125 4.3125 -4.984375 C 4.695312 -4.773438 4.992188 -4.476562 5.203125 -4.09375 C 5.410156 -3.71875 5.515625 -3.289062 5.515625 -2.8125 Z M 4.609375 -3 C 4.609375 -3.332031 4.535156 -3.613281 4.390625 -3.84375 C 4.242188 -4.082031 4.046875 -4.265625 3.796875 -4.390625 C 3.546875 -4.515625 3.265625 -4.578125 2.953125 -4.578125 C 2.515625 -4.578125 2.140625 -4.4375 1.828125 -4.15625 C 1.523438 -3.882812 1.351562 -3.5 1.3125 -3 Z M 4.609375 -3 "/></g></g></g><g fill="#ffffff" fill-opacity="1"><g transform="translate(173.204334, 36.164463)"><g><path d="M 3.28125 -5.328125 C 3.914062 -5.328125 4.429688 -5.132812 4.828125 -4.75 C 5.222656 -4.363281 5.421875 -3.804688 5.421875 -3.078125 L 5.421875 0 L 4.5625 0 L 4.5625 -2.953125 C 4.5625 -3.484375 4.429688 -3.882812 4.171875 -4.15625 C 3.910156 -4.4375 3.554688 -4.578125 3.109375 -4.578125 C 2.648438 -4.578125 2.285156 -4.429688 2.015625 -4.140625 C 1.742188 -3.859375 1.609375 -3.441406 1.609375 -2.890625 L 1.609375 0 L 0.734375 0 L 0.734375 -5.234375 L 1.609375 -5.234375 L 1.609375 -4.484375 C 1.773438 -4.753906 2.003906 -4.960938 2.296875 -5.109375 C 2.597656 -5.253906 2.925781 -5.328125 3.28125 -5.328125 Z M 3.28125 -5.328125 "/></g></g></g><g fill="#ffffff" fill-opacity="1"><g transform="translate(179.313083, 36.164463)"><g><path d="M 0.40625 -2.625 C 0.40625 -3.164062 0.515625 -3.640625 0.734375 -4.046875 C 0.953125 -4.453125 1.253906 -4.765625 1.640625 -4.984375 C 2.023438 -5.203125 2.460938 -5.3125 2.953125 -5.3125 C 3.597656 -5.3125 4.128906 -5.15625 4.546875 -4.84375 C 4.960938 -4.53125 5.238281 -4.097656 5.375 -3.546875 L 4.4375 -3.546875 C 4.351562 -3.867188 4.179688 -4.117188 3.921875 -4.296875 C 3.660156 -4.484375 3.335938 -4.578125 2.953125 -4.578125 C 2.460938 -4.578125 2.0625 -4.40625 1.75 -4.0625 C 1.445312 -3.726562 1.296875 -3.25 1.296875 -2.625 C 1.296875 -2 1.445312 -1.515625 1.75 -1.171875 C 2.0625 -0.828125 2.460938 -0.65625 2.953125 -0.65625 C 3.335938 -0.65625 3.65625 -0.742188 3.90625 -0.921875 C 4.164062 -1.097656 4.34375 -1.351562 4.4375 -1.6875 L 5.375 -1.6875 C 5.238281 -1.144531 4.957031 -0.710938 4.53125 -0.390625 C 4.113281 -0.078125 3.585938 0.078125 2.953125 0.078125 C 2.460938 0.078125 2.023438 -0.03125 1.640625 -0.25 C 1.253906 -0.46875 0.953125 -0.78125 0.734375 -1.1875 C 0.515625 -1.59375 0.40625 -2.070312 0.40625 -2.625 Z M 0.40625 -2.625 "/></g></g></g><g fill="#ffffff" fill-opacity="1"><g transform="translate(185.106848, 36.164463)"><g><path d="M 5.234375 -5.234375 L 2.09375 2.46875 L 1.1875 2.46875 L 2.21875 -0.0625 L 0.109375 -5.234375 L 1.078125 -5.234375 L 2.71875 -1 L 4.34375 -5.234375 Z M 5.234375 -5.234375 "/></g></g></g></svg>