<svg xmlns="http://www.w3.org/2000/svg" id="visual" width="1929" height="750" version="1.1"
    viewBox="0 0 1929 750">
    <path fill="#353535" d="M0 0h1929v750H0z" />
    <path fill="#0078aa"
        d="m0 356 46 2.7c46 2.6 138 8 229.8 2.3 91.9-5.7 183.5-22.3 275.4-46 91.8-23.7 183.8-54.3 275.6-58.8 91.9-4.5 183.5 17.1 275.4 21.5C1194 282 1286 269 1377.8 264c91.9-5 183.5-2 275.4-10.5C1745 245 1837 225 1883 215l46-10v546H0Z" />
    <path fill="#0069ad"
        d="m0 279 46-1.3c46-1.4 138-4 229.8-8.2 91.9-4.2 183.5-9.8 275.4-5.2C643 269 735 284 826.8 296.5c91.9 12.5 183.5 22.5 275.4 22.3 91.8-.1 183.8-10.5 275.6-24.6 91.9-14.2 183.5-32.2 275.4-28 91.8 4.1 183.8 30.5 229.8 43.6l46 13.2v428H0Z" />
    <path fill="#0058ab"
        d="m0 478 46-2.8c46-2.9 138-8.5 229.8-17.9 91.9-9.3 183.5-22.3 275.4-33.8C643 412 735 402 826.8 402.2c91.9.1 183.5 10.5 275.4 15.6 91.8 5.2 183.8 5.2 275.6 15.7 91.9 10.5 183.5 31.5 275.4 46.2 91.8 14.6 183.8 23 229.8 27.1l46 4.2v240H0Z" />
    <path fill="#0a45a5"
        d="m0 559 46-16.5C92 526 184 493 275.8 498.7c91.9 5.6 183.5 50 275.4 67.1C643 583 735 573 826.8 567.7c91.9-5.4 183.5-6 275.4-6.2 91.8-.2 183.8.2 275.6-14.3 91.9-14.5 183.5-43.9 275.4-56.5C1745 478 1837 482 1883 484l46 2v265H0Z" />
    <path fill="#353535"
        d="m0 588 46 11c46 11 138 33 229.8 39.2 91.9 6.1 183.5-3.5 275.4-16 91.8-12.5 183.8-27.9 275.6-36.9 91.9-9 183.5-11.6 275.4-12 91.8-.3 183.8 1.7 275.6 9 91.9 7.4 183.5 20 275.4 26.4C1745 615 1837 615 1883 615h46v136H0Z" />
</svg>